<?xml version="1.0"?>
<svg xmlns="http://www.w3.org/2000/svg" xmlns:xlink="http://www.w3.org/1999/xlink" xmlns:svgjs="http://svgjs.com/svgjs" version="1.1" width="512" height="512" x="0" y="0" viewBox="0 0 64 64" style="enable-background:new 0 0 512 512" xml:space="preserve" class=""><g><path xmlns="http://www.w3.org/2000/svg" d="m53 5h-42v18h42zm-34 6h-3c-.552 0-1 .449-1 1s.448 1 1 1c1.654 0 3 1.346 3 3s-1.346 3-3 3h-3v-2h3c.552 0 1-.449 1-1s-.448-1-1-1c-1.654 0-3-1.346-3-3s1.346-3 3-3h3zm8 0h-2v8h-2v-8h-2v-2h6zm8 8h-2v-2h-2v2h-2v-7c0-1.654 1.346-3 3-3s3 1.346 3 3zm8-2v2h-2v-2c0-.551-.448-1-1-1h-1v3h-2v-9c0-.552.447-1 1-1h1.5c1.93 0 3.5 1.57 3.5 3.5 0 .904-.345 1.729-.909 2.351.56.545.909 1.307.909 2.149zm8-6h-2v8h-2v-8h-2v-2h6z" fill="#4caf50" data-original="#000000" style="" class=""/><path xmlns="http://www.w3.org/2000/svg" d="m5 27h2v34h-2z" fill="#4caf50" data-original="#000000" style="" class=""/><path xmlns="http://www.w3.org/2000/svg" d="m3 3h6v22h-6z" fill="#4caf50" data-original="#000000" style="" class=""/><path xmlns="http://www.w3.org/2000/svg" d="m32 11c-.552 0-1 .449-1 1v3h2v-3c0-.551-.448-1-1-1z" fill="#4caf50" data-original="#000000" style="" class=""/><path xmlns="http://www.w3.org/2000/svg" d="m39.5 11h-.5v3h.5c.827 0 1.5-.673 1.5-1.5s-.673-1.5-1.5-1.5z" fill="#4caf50" data-original="#000000" style="" class=""/><path xmlns="http://www.w3.org/2000/svg" d="m33 43v2h-2v-2h-7.5l-13.5 18h21v-2h2v2h21l-13.5-18zm0 14h-2v-2h2zm0-4h-2v-2h2zm0-4h-2v-2h2z" fill="#4caf50" data-original="#000000" style="" class=""/><path xmlns="http://www.w3.org/2000/svg" d="m57 27h2v34h-2z" fill="#4caf50" data-original="#000000" style="" class=""/><path xmlns="http://www.w3.org/2000/svg" d="m55 3h6v22h-6z" fill="#4caf50" data-original="#000000" style="" class=""/></g></svg>
