<?xml version="1.0"?>
<svg xmlns="http://www.w3.org/2000/svg" xmlns:xlink="http://www.w3.org/1999/xlink" xmlns:svgjs="http://svgjs.com/svgjs" version="1.1" width="512" height="512" x="0" y="0" viewBox="0 0 512 512" style="enable-background:new 0 0 512 512" xml:space="preserve"><g><g xmlns="http://www.w3.org/2000/svg"><path d="m512 165v-15h-166v-30c0-33.084-26.916-60-60-60h-196v-60h-90v512h90v-150h136v30c0 33.084 26.916 60 60 60h226v-15c0-37.162-8.647-56.762-16.276-74.055-7.365-16.691-13.724-31.107-13.724-61.945s6.359-45.254 13.724-61.945c7.629-17.293 16.276-36.893 16.276-74.055zm-452 317h-30v-452h30zm30-392h196c16.542 0 30 13.458 30 30v220.072c-8.833-5.123-19.075-8.072-30-8.072h-196zm166 302v-30h30c16.542 0 30 13.458 30 30s-13.458 30-30 30-30-13.458-30-30zm212.276-16.945c6.054 13.723 11.43 25.908 13.15 46.945h-143.498c5.123-8.833 8.072-19.075 8.072-30v-212h135.427c-1.721 21.037-7.097 33.223-13.15 46.945-7.63 17.293-16.277 36.893-16.277 74.055s8.647 56.762 16.276 74.055z" fill="#ffab91" data-original="#000000" style=""/></g></g></svg>
